<svg width="186" height="31" viewBox="0 0 186 31" fill="none" xmlns="http://www.w3.org/2000/svg">
<path d="M48.3697 23.5109C52.3641 23.5109 55.2428 21.1552 55.5329 17.6565H52.1856C51.9178 19.3359 50.3781 20.4788 48.3697 20.4788C45.8481 20.4788 43.9067 18.6595 43.9067 15.1609C43.9067 11.6622 45.8481 9.81961 48.3697 9.81961C50.3334 9.81961 51.8732 10.9625 52.0963 12.6652H55.5998C55.1758 9.14321 52.2972 6.81079 48.3697 6.81079C44.1968 6.81079 40.5371 9.65634 40.5371 15.1609C40.5371 20.6654 44.1298 23.5109 48.3697 23.5109Z" fill="black"/>
<path d="M64.5125 11.5687H63.2405C61.8793 11.5687 61.0313 12.0585 60.4288 13.528V11.5687H57.3047V23.3241H60.4288V17.6097C60.4288 15.6038 61.1206 14.2743 62.6603 14.2743H64.5125V11.5687Z" fill="black"/>
<path d="M72.8304 11.5687L70.4873 19.1491L68.1219 11.5687H64.9531L69.0368 23.2308L67.3855 28.0823H70.3534L71.9378 23.2775L76.0214 11.5687H72.8304Z" fill="black"/>
<path d="M80.5687 28.0822V22.2745C81.1712 23.0675 82.2647 23.5107 83.5366 23.5107C86.7723 23.5107 88.9592 21.1083 88.9592 17.4464C88.9592 13.7845 86.9508 11.3821 83.8044 11.3821C82.3539 11.3821 81.2382 11.9419 80.5687 12.8515V11.5687H77.4669V28.0822H80.5687ZM83.1573 20.7118C81.4836 20.7118 80.3902 19.4056 80.3902 17.4464C80.3902 15.4638 81.4836 14.1577 83.1573 14.1577C84.7863 14.1577 85.902 15.4638 85.902 17.4464C85.902 19.4056 84.7863 20.7118 83.1573 20.7118Z" fill="black"/>
<path d="M91.8793 11.5689H89.7147V14.2745H91.8793V19.056C91.8793 21.7849 93.5529 23.3243 96.1415 23.3243H97.9934V20.3854H96.5655C95.5613 20.3854 94.9811 19.849 94.9811 18.7061V14.2745H97.9934V11.5689H94.9811V8.0936H91.8793V11.5689Z" fill="black"/>
<path d="M104.828 23.5107C108.287 23.5107 110.764 20.945 110.764 17.4464C110.764 13.9477 108.287 11.3821 104.828 11.3821C101.37 11.3821 98.8926 13.9477 98.8926 17.4464C98.8926 20.945 101.37 23.5107 104.828 23.5107ZM104.828 20.7118C103.155 20.7118 102.017 19.3823 102.017 17.4464C102.017 15.4871 103.155 14.1577 104.828 14.1577C106.502 14.1577 107.64 15.4871 107.64 17.4464C107.64 19.3823 106.502 20.7118 104.828 20.7118Z" fill="black"/>
<path d="M117.905 23.5109C121.408 23.5109 123.774 21.5983 123.774 18.5429C123.774 12.0821 115.562 14.8343 115.562 11.429C115.562 10.4727 116.387 9.81961 117.704 9.81961C119.199 9.81961 120.136 10.6593 120.248 11.9421H123.439C123.35 8.84 121.074 6.81079 117.704 6.81079C114.535 6.81079 112.304 8.72338 112.304 11.429C112.304 17.8431 120.404 15.3941 120.404 18.5895C120.404 19.8257 119.4 20.4788 117.905 20.4788C116.254 20.4788 115.205 19.4292 115.071 17.7732H111.857C111.991 21.2485 114.357 23.5109 117.905 23.5109Z" fill="black"/>
<path d="M126.834 11.5689H124.67V14.2745H126.834V19.056C126.834 21.7849 128.508 23.3243 131.097 23.3243H132.949V20.3855H131.521C130.516 20.3855 129.936 19.849 129.936 18.7061V14.2745H132.949V11.5689H129.936V8.09363H126.834V11.5689Z" fill="black"/>
<path d="M139.092 11.3821C136.013 11.3821 134.183 13.2713 134.049 15.6271H136.816C136.861 14.6475 137.552 13.7611 138.914 13.7611C140.185 13.7611 140.922 14.4375 140.922 15.4172C140.922 15.907 140.632 16.2802 140.074 16.2802H138.177C135.722 16.2802 134.071 17.6796 134.071 19.9887C134.071 21.9946 135.566 23.5107 137.753 23.5107C139.293 23.5107 140.543 22.7876 140.922 21.6914V23.3241H144.001V15.767C144.001 13.1081 141.926 11.3821 139.092 11.3821ZM138.534 21.1549C137.664 21.1549 137.039 20.6185 137.039 19.8488C137.039 18.9391 137.709 18.3327 138.646 18.3327H140.922V18.496C140.922 19.9887 140.052 21.1549 138.534 21.1549Z" fill="black"/>
<path d="M147.34 11.5689H145.176V14.2745H147.34V19.056C147.34 21.7849 149.014 23.3243 151.603 23.3243H153.455V20.3854H152.027C151.022 20.3854 150.442 19.849 150.442 18.7061V14.2745H153.455V11.5689H150.442V8.0936H147.34V11.5689Z" fill="black"/>
<path d="M159.758 23.5107C162.391 23.5107 164.132 22.0412 164.132 19.8021C164.132 14.4842 157.973 17.2131 157.973 14.8107C157.973 14.0644 158.575 13.6679 159.446 13.6679C160.294 13.6679 161.164 14.2043 161.298 15.2072H163.998C163.886 12.8982 162.057 11.3821 159.356 11.3821C157.058 11.3821 155.34 12.8515 155.34 14.9274C155.34 19.8721 161.387 17.5163 161.387 19.9187C161.387 20.5718 160.718 21.0616 159.758 21.0616C158.598 21.0616 157.817 20.4085 157.705 19.359H155.027C155.139 21.9013 157.013 23.5107 159.758 23.5107Z" fill="black"/>
<path fill-rule="evenodd" clip-rule="evenodd" d="M0 0H28.8142V30.1171H0V0ZM21.8158 7.17074C25.9836 11.527 25.9836 18.59 21.8158 22.9463C17.6479 27.3027 10.8905 27.3027 6.72261 22.9463C2.55476 18.59 2.55476 11.527 6.72261 7.17074C10.8905 2.81442 17.6479 2.81442 21.8158 7.17074ZM21.2272 15.1306L14.3667 7.95988L7.50618 15.1306L14.3667 22.3014L21.2272 15.1306Z" fill="black"/>
<path d="M172.939 12.9138V11.7438H170.077V6.61382H168.718V12.9138H172.939ZM177.843 12.9138V11.7438H174.981V6.61382H173.622V12.9138H177.843ZM181.195 12.9858C182.806 12.9858 183.967 12.0768 184.084 10.7268H182.734C182.626 11.3748 182.005 11.8158 181.195 11.8158C180.178 11.8158 179.395 11.1138 179.395 9.76382C179.395 8.41382 180.178 7.70282 181.195 7.70282C181.987 7.70282 182.608 8.14382 182.698 8.80082H184.111C183.94 7.44182 182.779 6.54182 181.195 6.54182C179.512 6.54182 178.036 7.63982 178.036 9.76382C178.036 11.8878 179.485 12.9858 181.195 12.9858Z" fill="black"/>
</svg>
